<svg width="48" height="48" viewBox="0 0 48 48" fill="none" xmlns="http://www.w3.org/2000/svg">
<path d="M41.0383 24.0057L41.0558 24.0839H41.1359H41.4231C43.0602 24.0839 44.4 25.4235 44.4 27.0603V30.1367C44.4 31.7734 43.0602 33.113 41.4231 33.113H40.859H40.786L40.7638 33.1825C39.5638 36.9241 36.5331 39.8424 32.7299 40.8896L32.6142 40.9215L32.6664 41.0295C32.9477 41.6122 33.118 42.264 33.118 42.9549C33.118 43.7508 32.4756 44.3931 31.6795 44.3931H17.3205C16.5244 44.3931 15.8821 43.7508 15.8821 42.9549C15.8821 42.2643 16.0521 41.6226 16.3339 41.0289L16.3849 40.9215L16.2704 40.8897C12.4667 39.8322 9.43617 36.924 8.23625 33.1825L8.21397 33.113H8.14103H7.57692C5.93983 33.113 4.6 31.7734 4.6 30.1367V27.0603C4.6 25.4235 5.93983 24.0839 7.57692 24.0839H7.8641H7.9442L7.96169 24.0057C9.13123 18.7793 13.7994 14.8548 19.3718 14.8548H22.9615H23.0615V14.7548V13.4422V13.3716L22.9951 13.348C21.2482 12.7256 19.9846 11.0699 19.9846 9.11473C19.9846 6.62683 22.0116 4.60016 24.5 4.60016C26.9884 4.60016 29.0154 6.62683 29.0154 9.11473C29.0154 11.0699 27.7518 12.7256 26.0049 13.348L25.9385 13.3716V13.4422V14.7548V14.8548H26.0385H29.6282C35.2006 14.8548 39.8688 18.7793 41.0383 24.0057ZM13.7932 7.39963L13.7778 7.3945H13.7676C13.0192 7.13934 12.6145 6.3303 12.8715 5.57847C13.1308 4.81993 13.9465 4.41769 14.694 4.66681L17.7709 5.69227L17.7713 5.69239C18.5281 5.94141 18.9315 6.75572 18.682 7.51423C18.4804 8.11879 17.9242 8.502 17.3205 8.502C17.1797 8.502 17.0263 8.4738 16.8692 8.42479L13.7932 7.39963ZM14.694 13.5524L14.694 13.5522L14.6885 13.5544C14.5503 13.6097 14.3998 13.6293 14.2436 13.6293H14.2333C13.6296 13.6293 13.0734 13.2461 12.8718 12.6416C12.6223 11.8831 13.0258 11.0687 13.7825 10.8197L13.7829 10.8196L16.8595 9.79423C16.8596 9.7942 16.8597 9.79417 16.8598 9.79413C17.6184 9.54466 18.4329 9.94808 18.6819 10.7047C18.9316 11.4633 18.5282 12.2778 17.7713 12.5268L17.7709 12.5269L14.694 13.5524ZM32.1299 8.42509L32.1299 8.42493L32.1244 8.42711C31.9862 8.4824 31.8357 8.502 31.6795 8.502H31.6692C31.0656 8.502 30.5095 8.11889 30.3078 7.51447C30.0581 6.7559 30.4616 5.94144 31.2184 5.69239L31.2188 5.69227L34.2954 4.66693C34.2954 4.66691 34.2955 4.6669 34.2955 4.66688C35.0542 4.41731 35.8688 4.82074 36.1178 5.57739C36.3675 6.33598 35.9641 7.15046 35.2072 7.39951L35.2068 7.39963L32.1299 8.42509ZM31.2291 12.5269L31.2137 12.5218H31.2035C30.4563 12.267 30.0598 11.4583 30.3078 10.7047C30.5569 9.94805 31.3816 9.54471 32.1299 9.79411L35.2068 10.8196L35.2072 10.8197C35.9641 11.0687 36.3675 11.8832 36.1178 12.6418C35.9162 13.2462 35.36 13.6293 34.7564 13.6293C34.6156 13.6293 34.4621 13.6011 34.3051 13.5521C34.3048 13.552 34.3045 13.5519 34.3042 13.5518L31.2291 12.5269ZM26.1385 9.11473C26.1385 8.20835 25.4065 7.47654 24.5 7.47654C23.5935 7.47654 22.8615 8.20835 22.8615 9.11473C22.8615 10.0211 23.5935 10.7529 24.5 10.7529C25.4065 10.7529 26.1385 10.0211 26.1385 9.11473ZM19.3718 38.4403H29.6282C34.4937 38.4403 38.4462 34.4886 38.4462 29.6239V26.5476C38.4462 21.6829 34.4937 17.7311 29.6282 17.7311H19.3718C14.5063 17.7311 10.5538 21.6829 10.5538 26.5476V29.6239C10.5538 34.4886 14.5063 38.4403 19.3718 38.4403ZM15.8821 25.0094C15.8821 23.3726 17.2219 22.033 18.859 22.033C20.4961 22.033 21.8359 23.3726 21.8359 25.0094V28.0857C21.8359 29.7225 20.4961 31.0621 18.859 31.0621C17.2219 31.0621 15.8821 29.7225 15.8821 28.0857V25.0094ZM27.1641 25.0094C27.1641 23.3726 28.5039 22.033 30.141 22.033C31.7781 22.033 33.118 23.3726 33.118 25.0094V28.0857C33.118 29.7225 31.7781 31.0621 30.141 31.0621C28.5039 31.0621 27.1641 29.7225 27.1641 28.0857V25.0094Z" fill="black" stroke="#EE7214" stroke-width="0.2"/>
</svg>
