<svg width="44" height="36" viewBox="0 0 44 36" fill="none" xmlns="http://www.w3.org/2000/svg">
<path d="M22 34H8.4C6.15979 34 5.03968 34 4.18404 33.564C3.43139 33.1805 2.81947 32.5686 2.43597 31.816C2 30.9603 2 29.8402 2 27.6V8.4C2 6.15979 2 5.03968 2.43597 4.18404C2.81947 3.43139 3.43139 2.81947 4.18404 2.43597C5.03968 2 6.15979 2 8.4 2H9.2C13.6804 2 15.9206 2 17.6319 2.87195C19.1372 3.63893 20.3611 4.86278 21.1281 6.36808C22 8.07937 22 10.3196 22 14.8M22 34V14.8M22 34H35.6C37.8402 34 38.9603 34 39.816 33.564C40.5686 33.1805 41.1805 32.5686 41.564 31.816C42 30.9603 42 29.8402 42 27.6V8.4C42 6.15979 42 5.03968 41.564 4.18404C41.1805 3.43139 40.5686 2.81947 39.816 2.43597C38.9603 2 37.8402 2 35.6 2H34.8C30.3196 2 28.0794 2 26.3681 2.87195C24.8628 3.63893 23.6389 4.86278 22.8719 6.36808C22 8.07937 22 10.3196 22 14.8" stroke="black" stroke-width="3" stroke-linecap="round" stroke-linejoin="round"/>
</svg>
