<svg width="36" height="36" viewBox="0 0 36 36" fill="none" xmlns="http://www.w3.org/2000/svg">
<path d="M32.6285 33.1722H19.3837M2 34L11.1873 30.4664C11.775 30.2404 12.0688 30.1274 12.3437 29.9798C12.5878 29.8488 12.8206 29.6975 13.0395 29.5276C13.286 29.3363 13.5086 29.1137 13.9538 28.6685L32.6285 9.99391C34.4572 8.16519 34.4572 5.20026 32.6285 3.37154C30.7998 1.54282 27.8348 1.54282 26.0061 3.37153L7.33147 22.0462C6.88627 22.4914 6.66367 22.714 6.4724 22.9604C6.3025 23.1794 6.15123 23.4122 6.02016 23.6563C5.8726 23.9312 5.7596 24.225 5.53358 24.8127L2 34ZM2 34L5.40741 25.1409C5.65123 24.5069 5.77315 24.1899 5.98226 24.0447C6.165 23.9178 6.39113 23.8699 6.60965 23.9116C6.85971 23.9593 7.09985 24.1995 7.58014 24.6798L11.3203 28.4199C11.8006 28.9002 12.0407 29.1403 12.0884 29.3904C12.1302 29.6089 12.0822 29.835 11.9553 30.0178C11.8101 30.2269 11.4931 30.3488 10.8592 30.5926L2 34Z" stroke="black" stroke-width="3" stroke-linecap="round" stroke-linejoin="round"/>
</svg>
